<?xml version="1.0" encoding="utf-8"?>
<!-- Generator: Adobe Illustrator 16.0.0, SVG Export Plug-In . SVG Version: 6.00 Build 0)  -->
<!DOCTYPE svg PUBLIC "-//W3C//DTD SVG 1.1//EN" "http://www.w3.org/Graphics/SVG/1.1/DTD/svg11.dtd">
<svg version="1.1" id="Layer_1" xmlns="http://www.w3.org/2000/svg" xmlns:xlink="http://www.w3.org/1999/xlink" x="0px" y="0px"
	 width="410.896px" height="237.376px" viewBox="0 0 410.896 237.376" enable-background="new 0 0 410.896 237.376"
	 xml:space="preserve">
<g>
	<path fill="#A7A9AC" d="M193.248,101.004c0,0-81.395-93.023-134.883-100S0.575,25.218,0.225,38.214
		c-0.382,14.168-4.651,58.139,50,89.534c0,0-18.604,46.512,33.721,82.559s97.674,2.326,109.302-22.093
		S193.248,101.004,193.248,101.004z"/>
	<path fill="#A7A9AC" d="M217.48,105.19c0-6.627-5.373-12-12-12h-1.064c-6.628,0-12,5.373-12,12v120.187c0,6.627,5.372,12,12,12
		h1.064c6.627,0,12-5.373,12-12V105.19z"/>
	<path fill="#A7A9AC" d="M201.67,110.971l-0.68-3.973c-12.098-70.718-51.899-85.912-52.3-86.058l2.045-5.641
		c1.734,0.628,41.849,15.936,55.381,86.342c13.075-72.438,54.068-88.077,55.822-88.712l2.054,5.638
		c-0.101,0.037-10.146,3.842-21.539,16.252c-19.124,20.829-27.288,49.459-30.77,69.809l-0.257,1.504L201.67,110.971z"/>
	<path fill="#A7A9AC" d="M217.648,103.307c0,0,81.395-93.023,134.883-100s57.783,24.214,58.141,37.209
		c0.381,13.867,4.65,58.14-50,89.535c0,0,18.604,46.512-33.723,82.559c-52.325,36.045-97.674,2.324-109.301-22.094
		C206.019,166.098,217.648,103.307,217.648,103.307z"/>
	<circle fill="#A7A9AC" cx="148.425" cy="16.159" r="7.851"/>
	<circle fill="#A7A9AC" cx="263.425" cy="16.159" r="7.851"/>
</g>
</svg>
