<?xml version="1.0" encoding="utf-8"?>
<!-- Generator: Adobe Illustrator 16.0.0, SVG Export Plug-In . SVG Version: 6.00 Build 0)  -->
<!DOCTYPE svg PUBLIC "-//W3C//DTD SVG 1.1//EN" "http://www.w3.org/Graphics/SVG/1.1/DTD/svg11.dtd">
<svg version="1.1" id="Layer_1" xmlns="http://www.w3.org/2000/svg" xmlns:xlink="http://www.w3.org/1999/xlink" x="0px" y="0px"
	 width="294.5px" height="46.25px" viewBox="0 0 294.5 46.25" enable-background="new 0 0 294.5 46.25" xml:space="preserve">
<g>
	<path fill="#6D6E71" d="M13.505,41.505c3.294,0,5.856-0.601,7.686-1.804s2.745-3.149,2.745-5.839c0-1.549-0.295-2.843-0.884-3.882
		c-0.59-1.039-1.373-1.916-2.349-2.629s-2.095-1.323-3.355-1.828c-1.261-0.505-2.583-1.041-3.965-1.607
		c-1.749-0.686-3.315-1.393-4.697-2.121c-1.383-0.728-2.562-1.549-3.538-2.464s-1.719-1.962-2.227-3.142
		c-0.509-1.179-0.763-2.562-0.763-4.148c0-3.618,1.199-6.363,3.599-8.234C8.157,1.937,11.492,1,15.762,1
		c1.138,0,2.257,0.082,3.355,0.244c1.098,0.163,2.125,0.377,3.081,0.641c0.955,0.266,1.83,0.56,2.623,0.885
		c0.793,0.326,1.454,0.671,1.982,1.037l-1.464,3.477c-1.18-0.812-2.614-1.464-4.301-1.952C19.35,4.844,17.531,4.6,15.579,4.6
		c-1.342,0-2.572,0.133-3.69,0.396C10.77,5.261,9.804,5.688,8.991,6.277c-0.814,0.59-1.455,1.332-1.921,2.227
		c-0.468,0.895-0.702,1.973-0.702,3.232c0,1.302,0.244,2.4,0.732,3.294c0.488,0.896,1.169,1.668,2.043,2.318
		c0.874,0.65,1.901,1.241,3.081,1.769c1.179,0.529,2.46,1.078,3.843,1.647c1.667,0.691,3.242,1.383,4.728,2.074
		c1.484,0.691,2.775,1.505,3.874,2.439c1.098,0.937,1.972,2.074,2.623,3.416c0.65,1.342,0.976,2.989,0.976,4.941
		c0,3.822-1.333,6.689-3.995,8.601c-2.664,1.912-6.273,2.867-10.828,2.867c-1.627,0-3.111-0.102-4.453-0.305
		c-1.342-0.204-2.542-0.458-3.599-0.763c-1.058-0.305-1.952-0.62-2.684-0.945C1.976,42.766,1.406,42.48,1,42.236l1.342-3.599
		c0.406,0.244,0.955,0.528,1.647,0.854c0.691,0.326,1.504,0.641,2.44,0.945c0.935,0.306,1.992,0.56,3.172,0.763
		C10.78,41.403,12.081,41.505,13.505,41.505z"/>
	<path fill="#6D6E71" d="M35.953,1.915h4.148v42.273h-4.148V1.915z"/>
	<path fill="#6D6E71" d="M77.432,24.181h4.148v18.849c-0.773,0.326-2.288,0.742-4.545,1.251c-2.257,0.508-5.032,0.762-8.326,0.762
		c-2.766,0-5.328-0.487-7.686-1.464c-2.359-0.976-4.403-2.388-6.13-4.239c-1.729-1.85-3.081-4.147-4.057-6.893
		s-1.464-5.887-1.464-9.425s0.528-6.68,1.586-9.425c1.057-2.745,2.49-5.042,4.3-6.893c1.809-1.851,3.914-3.264,6.313-4.239
		C63.971,1.488,66.533,1,69.258,1c3.131,0,5.713,0.336,7.747,1.007c2.033,0.671,3.517,1.312,4.453,1.922l-1.403,3.538
		c-1.139-0.813-2.684-1.474-4.636-1.982c-1.952-0.509-4.067-0.763-6.344-0.763c-2.115,0-4.108,0.387-5.978,1.159
		c-1.871,0.772-3.498,1.932-4.88,3.477c-1.383,1.546-2.47,3.457-3.264,5.734c-0.793,2.277-1.189,4.921-1.189,7.93
		c0,2.806,0.325,5.338,0.976,7.595c0.65,2.257,1.637,4.188,2.958,5.795c1.321,1.606,2.958,2.836,4.911,3.69
		c1.952,0.854,4.209,1.281,6.771,1.281c2.074,0,3.812-0.112,5.215-0.336c1.403-0.223,2.349-0.437,2.836-0.641V24.181z"/>
	<path fill="#6D6E71" d="M106.467,45.104c-2.806,0-5.195-0.427-7.167-1.281c-1.973-0.854-3.568-2.033-4.788-3.538
		c-1.22-1.504-2.104-3.264-2.654-5.276c-0.549-2.013-0.823-4.179-0.823-6.496V1.915h4.148v26.048c0,2.317,0.274,4.321,0.823,6.008
		c0.549,1.688,1.312,3.081,2.288,4.179s2.155,1.912,3.538,2.44c1.382,0.528,2.928,0.793,4.636,0.793
		c1.709,0,3.254-0.265,4.637-0.793c1.381-0.528,2.562-1.343,3.537-2.44c0.977-1.098,1.738-2.49,2.287-4.179
		c0.551-1.687,0.824-3.69,0.824-6.008V1.915h4.148v26.597c0,2.317-0.275,4.483-0.824,6.496s-1.434,3.772-2.652,5.276
		c-1.221,1.505-2.816,2.685-4.789,3.538C111.662,44.677,109.273,45.104,106.467,45.104z"/>
	<path fill="#6D6E71" d="M160.879,14.604c0,3.172-0.834,5.673-2.501,7.503c-1.668,1.83-3.864,3.152-6.588,3.965
		c0.65,0.814,1.494,1.912,2.531,3.294c1.037,1.383,2.104,2.897,3.203,4.545c1.098,1.646,2.175,3.365,3.232,5.154
		c1.058,1.79,1.952,3.498,2.685,5.124h-4.453c-0.854-1.626-1.779-3.253-2.775-4.88c-0.997-1.626-2.014-3.202-3.051-4.728
		c-1.036-1.525-2.043-2.938-3.02-4.239c-0.976-1.302-1.829-2.44-2.562-3.416c-1.302,0.122-2.603,0.183-3.904,0.183h-6.832v17.08
		h-4.147V2.708c1.464-0.405,3.182-0.701,5.154-0.884c1.972-0.184,3.791-0.274,5.459-0.274c5.815,0,10.197,1.098,13.146,3.294
		C159.404,7.039,160.879,10.293,160.879,14.604z M143.799,5.148c-1.546,0-2.897,0.052-4.057,0.152
		c-1.158,0.103-2.125,0.193-2.897,0.274V23.57h5.734c1.911,0,3.721-0.092,5.429-0.274s3.192-0.589,4.453-1.22
		c1.26-0.63,2.257-1.535,2.989-2.715c0.731-1.179,1.098-2.785,1.098-4.819c0-1.869-0.366-3.415-1.098-4.636
		c-0.732-1.22-1.688-2.186-2.867-2.897c-1.18-0.711-2.531-1.199-4.057-1.464C147.002,5.281,145.425,5.148,143.799,5.148z"/>
	<path fill="#6D6E71" d="M212.484,14.604c0,3.172-0.834,5.673-2.501,7.503c-1.668,1.83-3.864,3.152-6.588,3.965
		c0.65,0.814,1.494,1.912,2.531,3.294c1.037,1.383,2.104,2.897,3.203,4.545c1.098,1.646,2.175,3.365,3.232,5.154
		c1.058,1.79,1.952,3.498,2.685,5.124h-4.453c-0.854-1.626-1.779-3.253-2.775-4.88c-0.997-1.626-2.014-3.202-3.051-4.728
		c-1.036-1.525-2.043-2.938-3.02-4.239c-0.976-1.302-1.829-2.44-2.562-3.416c-1.302,0.122-2.603,0.183-3.904,0.183h-6.832v17.08
		h-4.147V2.708c1.464-0.405,3.182-0.701,5.154-0.884c1.972-0.184,3.791-0.274,5.459-0.274c5.815,0,10.197,1.098,13.146,3.294
		C211.01,7.039,212.484,10.293,212.484,14.604z M195.404,5.148c-1.546,0-2.897,0.052-4.057,0.152
		c-1.158,0.103-2.125,0.193-2.897,0.274V23.57h5.734c1.911,0,3.721-0.092,5.429-0.274s3.192-0.589,4.453-1.22
		c1.26-0.63,2.257-1.535,2.989-2.715c0.731-1.179,1.098-2.785,1.098-4.819c0-1.869-0.366-3.415-1.098-4.636
		c-0.732-1.22-1.688-2.186-2.867-2.897c-1.18-0.711-2.531-1.199-4.057-1.464C198.607,5.281,197.03,5.148,195.404,5.148z"/>
	<path fill="#6D6E71" d="M259.941,23.021c0,3.62-0.528,6.812-1.586,9.577s-2.491,5.073-4.3,6.924
		c-1.811,1.851-3.915,3.243-6.313,4.178c-2.4,0.936-4.941,1.403-7.625,1.403c-2.685,0-5.227-0.468-7.625-1.403
		c-2.4-0.935-4.505-2.327-6.313-4.178c-1.811-1.851-3.244-4.158-4.301-6.924c-1.059-2.766-1.586-5.957-1.586-9.577
		c0-3.619,0.527-6.802,1.586-9.547c1.057-2.745,2.49-5.042,4.301-6.893c1.809-1.85,3.913-3.242,6.313-4.179
		C234.891,1.469,237.433,1,240.117,1c2.684,0,5.225,0.469,7.625,1.403c2.398,0.937,4.503,2.329,6.313,4.179
		c1.809,1.851,3.242,4.147,4.3,6.893S259.941,19.402,259.941,23.021z M255.55,23.021c0-2.846-0.366-5.398-1.098-7.655
		c-0.732-2.257-1.77-4.179-3.111-5.765s-2.959-2.796-4.85-3.63c-1.891-0.833-4.017-1.25-6.374-1.25c-2.359,0-4.484,0.417-6.375,1.25
		c-1.891,0.834-3.508,2.044-4.85,3.63s-2.379,3.508-3.11,5.765c-0.732,2.257-1.099,4.81-1.099,7.655
		c0,2.847,0.366,5.398,1.099,7.655c0.731,2.257,1.769,4.179,3.11,5.765s2.959,2.806,4.85,3.66c1.891,0.854,4.016,1.281,6.375,1.281
		c2.357,0,4.483-0.428,6.374-1.281c1.891-0.854,3.508-2.074,4.85-3.66s2.379-3.508,3.111-5.765
		C255.184,28.42,255.55,25.868,255.55,23.021z"/>
	<path fill="#6D6E71" d="M278.303,41.505c3.294,0,5.855-0.601,7.686-1.804s2.745-3.149,2.745-5.839c0-1.549-0.295-2.843-0.884-3.882
		c-0.591-1.039-1.373-1.916-2.349-2.629c-0.977-0.713-2.096-1.323-3.355-1.828c-1.261-0.505-2.583-1.041-3.965-1.607
		c-1.749-0.686-3.315-1.393-4.697-2.121c-1.383-0.728-2.562-1.549-3.538-2.464c-0.976-0.915-1.718-1.962-2.227-3.142
		c-0.509-1.179-0.762-2.562-0.762-4.148c0-3.618,1.198-6.363,3.599-8.234C272.955,1.937,276.29,1,280.56,1
		c1.138,0,2.257,0.082,3.355,0.244c1.098,0.163,2.124,0.377,3.08,0.641c0.955,0.266,1.83,0.56,2.623,0.885
		c0.793,0.326,1.453,0.671,1.982,1.037l-1.464,3.477c-1.18-0.812-2.613-1.464-4.301-1.952c-1.688-0.487-3.507-0.731-5.459-0.731
		c-1.343,0-2.573,0.133-3.69,0.396c-1.119,0.265-2.085,0.691-2.897,1.281c-0.814,0.59-1.455,1.332-1.922,2.227
		c-0.468,0.895-0.701,1.973-0.701,3.232c0,1.302,0.243,2.4,0.731,3.294c0.488,0.896,1.169,1.668,2.044,2.318
		c0.874,0.65,1.9,1.241,3.08,1.769c1.179,0.529,2.46,1.078,3.843,1.647c1.667,0.691,3.243,1.383,4.728,2.074
		s2.775,1.505,3.874,2.439c1.098,0.937,1.972,2.074,2.623,3.416c0.649,1.342,0.976,2.989,0.976,4.941
		c0,3.822-1.332,6.689-3.995,8.601c-2.664,1.912-6.273,2.867-10.828,2.867c-1.627,0-3.11-0.102-4.452-0.305
		c-1.343-0.204-2.542-0.458-3.6-0.763s-1.952-0.62-2.684-0.945c-0.732-0.325-1.302-0.61-1.708-0.854l1.342-3.599
		c0.406,0.244,0.955,0.528,1.647,0.854c0.69,0.326,1.504,0.641,2.439,0.945c0.936,0.306,1.992,0.56,3.172,0.763
		C275.578,41.403,276.879,41.505,278.303,41.505z"/>
</g>
</svg>
